<mxfile host="app.diagrams.net" modified="2022-07-03T21:54:34.794Z" agent="5.0 (Windows NT 10.0; Win64; x64) AppleWebKit/537.36 (KHTML, like Gecko) Chrome/103.0.0.0 Safari/537.36" etag="OGlJPPBl0p9Nhj4YMRT0" version="20.0.4" type="github">
  <diagram id="d4RTVTLFjbAPIMbOJhSi" name="Page-1">
    <mxGraphModel dx="996" dy="608" grid="1" gridSize="10" guides="1" tooltips="1" connect="1" arrows="1" fold="1" page="1" pageScale="1" pageWidth="850" pageHeight="1100" math="0" shadow="0">
      <root>
        <mxCell id="0" />
        <mxCell id="1" parent="0" />
        <mxCell id="l8VWmBXfpPARfImJsObf-33" style="edgeStyle=orthogonalEdgeStyle;rounded=0;orthogonalLoop=1;jettySize=auto;html=1;exitX=1;exitY=0.5;exitDx=0;exitDy=0;entryX=0;entryY=0.5;entryDx=0;entryDy=0;" edge="1" parent="1" source="l8VWmBXfpPARfImJsObf-1" target="l8VWmBXfpPARfImJsObf-14">
          <mxGeometry relative="1" as="geometry" />
        </mxCell>
        <mxCell id="l8VWmBXfpPARfImJsObf-1" value="" style="rounded=0;whiteSpace=wrap;html=1;" vertex="1" parent="1">
          <mxGeometry x="50" y="300" width="180" height="300" as="geometry" />
        </mxCell>
        <mxCell id="l8VWmBXfpPARfImJsObf-2" value="Search Contact" style="rounded=0;whiteSpace=wrap;html=1;" vertex="1" parent="1">
          <mxGeometry x="60" y="310" width="160" height="30" as="geometry" />
        </mxCell>
        <mxCell id="l8VWmBXfpPARfImJsObf-3" value="" style="ellipse;whiteSpace=wrap;html=1;aspect=fixed;" vertex="1" parent="1">
          <mxGeometry x="60" y="350" width="40" height="40" as="geometry" />
        </mxCell>
        <mxCell id="l8VWmBXfpPARfImJsObf-4" value="Contact Name" style="rounded=0;whiteSpace=wrap;html=1;" vertex="1" parent="1">
          <mxGeometry x="110" y="360" width="110" height="20" as="geometry" />
        </mxCell>
        <mxCell id="l8VWmBXfpPARfImJsObf-5" value="" style="ellipse;whiteSpace=wrap;html=1;aspect=fixed;" vertex="1" parent="1">
          <mxGeometry x="60" y="400" width="40" height="40" as="geometry" />
        </mxCell>
        <mxCell id="l8VWmBXfpPARfImJsObf-6" value="Contact Name" style="rounded=0;whiteSpace=wrap;html=1;" vertex="1" parent="1">
          <mxGeometry x="110" y="410" width="110" height="20" as="geometry" />
        </mxCell>
        <mxCell id="l8VWmBXfpPARfImJsObf-7" value="" style="ellipse;whiteSpace=wrap;html=1;aspect=fixed;" vertex="1" parent="1">
          <mxGeometry x="60" y="450" width="40" height="40" as="geometry" />
        </mxCell>
        <mxCell id="l8VWmBXfpPARfImJsObf-8" value="Contact Name" style="rounded=0;whiteSpace=wrap;html=1;" vertex="1" parent="1">
          <mxGeometry x="110" y="460" width="110" height="20" as="geometry" />
        </mxCell>
        <mxCell id="l8VWmBXfpPARfImJsObf-9" value="" style="ellipse;whiteSpace=wrap;html=1;aspect=fixed;" vertex="1" parent="1">
          <mxGeometry x="60" y="500" width="40" height="40" as="geometry" />
        </mxCell>
        <mxCell id="l8VWmBXfpPARfImJsObf-10" value="Contact Name" style="rounded=0;whiteSpace=wrap;html=1;" vertex="1" parent="1">
          <mxGeometry x="110" y="510" width="110" height="20" as="geometry" />
        </mxCell>
        <mxCell id="l8VWmBXfpPARfImJsObf-11" value="" style="ellipse;whiteSpace=wrap;html=1;aspect=fixed;" vertex="1" parent="1">
          <mxGeometry x="60" y="550" width="40" height="40" as="geometry" />
        </mxCell>
        <mxCell id="l8VWmBXfpPARfImJsObf-12" value="Contact Name" style="rounded=0;whiteSpace=wrap;html=1;" vertex="1" parent="1">
          <mxGeometry x="110" y="560" width="110" height="20" as="geometry" />
        </mxCell>
        <mxCell id="l8VWmBXfpPARfImJsObf-14" value="" style="rounded=0;whiteSpace=wrap;html=1;" vertex="1" parent="1">
          <mxGeometry x="280" y="300" width="240" height="300" as="geometry" />
        </mxCell>
        <mxCell id="l8VWmBXfpPARfImJsObf-15" value="&lt;b&gt;Plan&lt;br&gt;&lt;ol&gt;&lt;li&gt;&lt;b&gt;General Requirements&lt;/b&gt;&lt;/li&gt;&lt;li&gt;&lt;b&gt;Functional Requirements&lt;/b&gt;&lt;/li&gt;&lt;li&gt;&lt;b&gt;Component Architecture&lt;/b&gt;&lt;/li&gt;&lt;li&gt;&lt;b&gt;Data API &amp;amp; Protocol&lt;/b&gt;&lt;/li&gt;&lt;li&gt;&lt;b&gt;Data Entities and Front Store&lt;/b&gt;&lt;/li&gt;&lt;li&gt;&lt;b&gt;Optimizations&lt;/b&gt;&lt;/li&gt;&lt;li&gt;&lt;b&gt;Accessibility&lt;/b&gt;&lt;/li&gt;&lt;/ol&gt;&lt;br&gt;&lt;br&gt;&lt;br&gt;&lt;/b&gt;" style="text;html=1;strokeColor=none;fillColor=none;align=left;verticalAlign=middle;whiteSpace=wrap;rounded=0;" vertex="1" parent="1">
          <mxGeometry x="50" y="120" width="240" height="30" as="geometry" />
        </mxCell>
        <mxCell id="l8VWmBXfpPARfImJsObf-16" value="&lt;b&gt;General Requirements&lt;/b&gt;&lt;br&gt;&lt;ol style=&quot;&quot;&gt;&lt;li style=&quot;&quot;&gt;&lt;b&gt;User Can Send and receive&amp;nbsp;Messages&lt;/b&gt;&lt;/li&gt;&lt;li style=&quot;font-weight: bold;&quot;&gt;User Can attach Media&lt;/li&gt;&lt;ol&gt;&lt;li style=&quot;font-weight: bold;&quot;&gt;Audio&lt;/li&gt;&lt;li style=&quot;font-weight: bold;&quot;&gt;video&lt;/li&gt;&lt;li style=&quot;font-weight: bold;&quot;&gt;Images&lt;/li&gt;&lt;li style=&quot;font-weight: bold;&quot;&gt;location&lt;/li&gt;&lt;/ol&gt;&lt;li&gt;&lt;b&gt;user Can see the contact List&lt;/b&gt;&lt;/li&gt;&lt;li&gt;&lt;b&gt;User Can Search the contact list&lt;/b&gt;&lt;/li&gt;&lt;/ol&gt;&lt;br&gt;&lt;br&gt;" style="text;html=1;strokeColor=none;fillColor=none;align=left;verticalAlign=middle;whiteSpace=wrap;rounded=0;" vertex="1" parent="1">
          <mxGeometry x="280" y="130" width="240" height="30" as="geometry" />
        </mxCell>
        <mxCell id="l8VWmBXfpPARfImJsObf-17" value="&lt;b&gt;Functional Requirements&lt;/b&gt;&lt;br&gt;&lt;ol style=&quot;&quot;&gt;&lt;li style=&quot;&quot;&gt;&lt;b&gt;Low Latency For Messages (40-60 ms)&lt;/b&gt;&lt;/li&gt;&lt;li style=&quot;font-weight: bold;&quot;&gt;should work in short network bandwidth&lt;/li&gt;&lt;li&gt;&lt;b&gt;should not waste battery life&lt;/b&gt;&lt;/li&gt;&lt;li&gt;&lt;b&gt;Focus on Traffic and resources&lt;/b&gt;&lt;/li&gt;&lt;li&gt;&lt;b&gt;Support wide range of devices&lt;/b&gt;&lt;/li&gt;&lt;/ol&gt;" style="text;html=1;strokeColor=none;fillColor=none;align=left;verticalAlign=middle;whiteSpace=wrap;rounded=0;" vertex="1" parent="1">
          <mxGeometry x="530" y="90" width="270" height="30" as="geometry" />
        </mxCell>
        <mxCell id="l8VWmBXfpPARfImJsObf-45" style="edgeStyle=orthogonalEdgeStyle;rounded=0;orthogonalLoop=1;jettySize=auto;html=1;exitX=1;exitY=0.5;exitDx=0;exitDy=0;" edge="1" parent="1" source="l8VWmBXfpPARfImJsObf-19" target="l8VWmBXfpPARfImJsObf-42">
          <mxGeometry relative="1" as="geometry" />
        </mxCell>
        <mxCell id="l8VWmBXfpPARfImJsObf-19" value="Message1" style="rounded=1;whiteSpace=wrap;html=1;" vertex="1" parent="1">
          <mxGeometry x="345" y="335" width="120" height="30" as="geometry" />
        </mxCell>
        <mxCell id="l8VWmBXfpPARfImJsObf-20" value="" style="ellipse;whiteSpace=wrap;html=1;aspect=fixed;" vertex="1" parent="1">
          <mxGeometry x="295" y="330" width="40" height="40" as="geometry" />
        </mxCell>
        <mxCell id="l8VWmBXfpPARfImJsObf-21" value="Message2" style="rounded=1;whiteSpace=wrap;html=1;" vertex="1" parent="1">
          <mxGeometry x="335" y="385" width="120" height="30" as="geometry" />
        </mxCell>
        <mxCell id="l8VWmBXfpPARfImJsObf-22" value="" style="ellipse;whiteSpace=wrap;html=1;aspect=fixed;" vertex="1" parent="1">
          <mxGeometry x="465" y="380" width="40" height="40" as="geometry" />
        </mxCell>
        <mxCell id="l8VWmBXfpPARfImJsObf-23" value="Attachment1" style="rounded=1;whiteSpace=wrap;html=1;" vertex="1" parent="1">
          <mxGeometry x="295" y="450" width="95" height="60" as="geometry" />
        </mxCell>
        <mxCell id="l8VWmBXfpPARfImJsObf-24" value="Attachment2" style="rounded=1;whiteSpace=wrap;html=1;" vertex="1" parent="1">
          <mxGeometry x="410" y="450" width="95" height="60" as="geometry" />
        </mxCell>
        <mxCell id="l8VWmBXfpPARfImJsObf-25" value="Message Text box" style="rounded=0;whiteSpace=wrap;html=1;" vertex="1" parent="1">
          <mxGeometry x="286.25" y="550" width="163.75" height="40" as="geometry" />
        </mxCell>
        <mxCell id="l8VWmBXfpPARfImJsObf-39" style="edgeStyle=orthogonalEdgeStyle;rounded=0;orthogonalLoop=1;jettySize=auto;html=1;exitX=0.5;exitY=1;exitDx=0;exitDy=0;entryX=0;entryY=0.75;entryDx=0;entryDy=0;" edge="1" parent="1" source="l8VWmBXfpPARfImJsObf-26" target="l8VWmBXfpPARfImJsObf-38">
          <mxGeometry relative="1" as="geometry" />
        </mxCell>
        <mxCell id="l8VWmBXfpPARfImJsObf-26" value="Actions" style="ellipse;whiteSpace=wrap;html=1;aspect=fixed;" vertex="1" parent="1">
          <mxGeometry x="455" y="555" width="30" height="30" as="geometry" />
        </mxCell>
        <mxCell id="l8VWmBXfpPARfImJsObf-27" value="Send" style="ellipse;whiteSpace=wrap;html=1;aspect=fixed;" vertex="1" parent="1">
          <mxGeometry x="487" y="555" width="30" height="30" as="geometry" />
        </mxCell>
        <mxCell id="l8VWmBXfpPARfImJsObf-28" value="" style="rounded=0;whiteSpace=wrap;html=1;" vertex="1" parent="1">
          <mxGeometry x="290" y="680" width="240" height="160" as="geometry" />
        </mxCell>
        <mxCell id="l8VWmBXfpPARfImJsObf-29" value="Images" style="rounded=0;whiteSpace=wrap;html=1;" vertex="1" parent="1">
          <mxGeometry x="296.25" y="690" width="113.75" height="60" as="geometry" />
        </mxCell>
        <mxCell id="l8VWmBXfpPARfImJsObf-30" value="Video" style="rounded=0;whiteSpace=wrap;html=1;" vertex="1" parent="1">
          <mxGeometry x="420" y="690" width="100" height="60" as="geometry" />
        </mxCell>
        <mxCell id="l8VWmBXfpPARfImJsObf-31" value="Location" style="rounded=0;whiteSpace=wrap;html=1;" vertex="1" parent="1">
          <mxGeometry x="296.25" y="760" width="113.75" height="60" as="geometry" />
        </mxCell>
        <mxCell id="l8VWmBXfpPARfImJsObf-32" value="Link" style="rounded=0;whiteSpace=wrap;html=1;" vertex="1" parent="1">
          <mxGeometry x="420" y="760" width="100" height="60" as="geometry" />
        </mxCell>
        <mxCell id="l8VWmBXfpPARfImJsObf-37" value="Chat View" style="text;html=1;strokeColor=none;fillColor=none;align=center;verticalAlign=middle;whiteSpace=wrap;rounded=0;" vertex="1" parent="1">
          <mxGeometry x="365" y="270" width="60" height="30" as="geometry" />
        </mxCell>
        <mxCell id="l8VWmBXfpPARfImJsObf-40" style="edgeStyle=orthogonalEdgeStyle;rounded=0;orthogonalLoop=1;jettySize=auto;html=1;exitX=0.25;exitY=1;exitDx=0;exitDy=0;entryX=1;entryY=0.5;entryDx=0;entryDy=0;" edge="1" parent="1" source="l8VWmBXfpPARfImJsObf-38" target="l8VWmBXfpPARfImJsObf-28">
          <mxGeometry relative="1" as="geometry" />
        </mxCell>
        <mxCell id="l8VWmBXfpPARfImJsObf-38" value="Attach Media&amp;nbsp; &amp;nbsp; &amp;nbsp; Emojis&amp;nbsp; &amp;nbsp; &amp;nbsp;Quick Photo&amp;nbsp; &amp;nbsp; &amp;nbsp; Audio" style="rounded=0;whiteSpace=wrap;html=1;" vertex="1" parent="1">
          <mxGeometry x="550" y="610" width="270" height="40" as="geometry" />
        </mxCell>
        <mxCell id="l8VWmBXfpPARfImJsObf-44" style="edgeStyle=orthogonalEdgeStyle;rounded=0;orthogonalLoop=1;jettySize=auto;html=1;exitX=0.5;exitY=1;exitDx=0;exitDy=0;" edge="1" parent="1" source="l8VWmBXfpPARfImJsObf-42" target="l8VWmBXfpPARfImJsObf-43">
          <mxGeometry relative="1" as="geometry">
            <Array as="points">
              <mxPoint x="620" y="370" />
              <mxPoint x="715" y="370" />
            </Array>
          </mxGeometry>
        </mxCell>
        <mxCell id="l8VWmBXfpPARfImJsObf-42" value="Message1" style="rounded=1;whiteSpace=wrap;html=1;" vertex="1" parent="1">
          <mxGeometry x="560" y="330" width="120" height="30" as="geometry" />
        </mxCell>
        <mxCell id="l8VWmBXfpPARfImJsObf-43" value="Reply&amp;nbsp; &amp;nbsp; &amp;nbsp; &amp;nbsp; Copy&amp;nbsp; &amp;nbsp; &amp;nbsp; &amp;nbsp; Share&amp;nbsp; &amp;nbsp; &amp;nbsp; &amp;nbsp; Delete" style="rounded=0;whiteSpace=wrap;html=1;" vertex="1" parent="1">
          <mxGeometry x="600" y="390" width="230" height="30" as="geometry" />
        </mxCell>
        <mxCell id="l8VWmBXfpPARfImJsObf-48" style="edgeStyle=orthogonalEdgeStyle;rounded=0;orthogonalLoop=1;jettySize=auto;html=1;exitX=0;exitY=0.5;exitDx=0;exitDy=0;fontStyle=1;align=center;verticalAlign=middle;fontColor=default;labelBackgroundColor=none;labelBorderColor=none;spacingTop=0;" edge="1" parent="1" source="l8VWmBXfpPARfImJsObf-46" target="l8VWmBXfpPARfImJsObf-49">
          <mxGeometry relative="1" as="geometry">
            <mxPoint x="300" y="1090" as="targetPoint" />
          </mxGeometry>
        </mxCell>
        <mxCell id="l8VWmBXfpPARfImJsObf-50" style="edgeStyle=orthogonalEdgeStyle;rounded=0;orthogonalLoop=1;jettySize=auto;html=1;exitX=1;exitY=0.5;exitDx=0;exitDy=0;fontStyle=1;align=center;verticalAlign=middle;fontColor=default;labelBackgroundColor=none;labelBorderColor=none;spacingTop=0;" edge="1" parent="1" source="l8VWmBXfpPARfImJsObf-46" target="l8VWmBXfpPARfImJsObf-53">
          <mxGeometry relative="1" as="geometry">
            <mxPoint x="690" y="1080" as="targetPoint" />
          </mxGeometry>
        </mxCell>
        <mxCell id="l8VWmBXfpPARfImJsObf-46" value="Chat App" style="rounded=1;whiteSpace=wrap;html=1;fontStyle=1;align=center;verticalAlign=middle;fontColor=default;labelBackgroundColor=none;labelBorderColor=none;spacingTop=0;" vertex="1" parent="1">
          <mxGeometry x="360" y="970" width="120" height="60" as="geometry" />
        </mxCell>
        <mxCell id="l8VWmBXfpPARfImJsObf-47" value="&lt;b&gt;Component Tree&lt;/b&gt;" style="text;html=1;strokeColor=none;fillColor=none;align=center;verticalAlign=middle;whiteSpace=wrap;rounded=0;" vertex="1" parent="1">
          <mxGeometry x="375" y="920" width="125" height="30" as="geometry" />
        </mxCell>
        <mxCell id="l8VWmBXfpPARfImJsObf-52" value="" style="edgeStyle=orthogonalEdgeStyle;rounded=0;orthogonalLoop=1;jettySize=auto;html=1;fontStyle=1;align=center;verticalAlign=middle;fontColor=default;labelBackgroundColor=none;labelBorderColor=none;spacingTop=0;" edge="1" parent="1" source="l8VWmBXfpPARfImJsObf-49" target="l8VWmBXfpPARfImJsObf-51">
          <mxGeometry relative="1" as="geometry" />
        </mxCell>
        <mxCell id="l8VWmBXfpPARfImJsObf-49" value="Contact List" style="rounded=1;whiteSpace=wrap;html=1;fontStyle=1;align=center;verticalAlign=middle;fontColor=default;labelBackgroundColor=none;labelBorderColor=none;spacingTop=0;" vertex="1" parent="1">
          <mxGeometry x="240" y="1040" width="120" height="60" as="geometry" />
        </mxCell>
        <mxCell id="l8VWmBXfpPARfImJsObf-51" value="Contact" style="whiteSpace=wrap;html=1;rounded=1;fontStyle=1;align=center;verticalAlign=middle;fontColor=default;labelBackgroundColor=none;labelBorderColor=none;spacingTop=0;" vertex="1" parent="1">
          <mxGeometry x="240" y="1120" width="120" height="60" as="geometry" />
        </mxCell>
        <mxCell id="l8VWmBXfpPARfImJsObf-55" value="" style="edgeStyle=orthogonalEdgeStyle;rounded=0;orthogonalLoop=1;jettySize=auto;html=1;fontStyle=1;align=center;verticalAlign=middle;fontColor=default;labelBackgroundColor=none;labelBorderColor=none;spacingTop=0;" edge="1" parent="1" source="l8VWmBXfpPARfImJsObf-53" target="l8VWmBXfpPARfImJsObf-54">
          <mxGeometry relative="1" as="geometry" />
        </mxCell>
        <mxCell id="l8VWmBXfpPARfImJsObf-59" value="" style="edgeStyle=orthogonalEdgeStyle;rounded=0;orthogonalLoop=1;jettySize=auto;html=1;fontStyle=1;align=center;verticalAlign=middle;fontColor=default;labelBackgroundColor=none;labelBorderColor=none;spacingTop=0;" edge="1" parent="1" source="l8VWmBXfpPARfImJsObf-53" target="l8VWmBXfpPARfImJsObf-58">
          <mxGeometry relative="1" as="geometry" />
        </mxCell>
        <mxCell id="l8VWmBXfpPARfImJsObf-53" value="Chat View" style="rounded=1;whiteSpace=wrap;html=1;fontStyle=1;align=center;verticalAlign=middle;fontColor=default;labelBackgroundColor=none;labelBorderColor=none;spacingTop=0;" vertex="1" parent="1">
          <mxGeometry x="487" y="1050" width="120" height="60" as="geometry" />
        </mxCell>
        <mxCell id="l8VWmBXfpPARfImJsObf-57" value="" style="edgeStyle=orthogonalEdgeStyle;rounded=0;orthogonalLoop=1;jettySize=auto;html=1;fontStyle=1;align=center;verticalAlign=middle;fontColor=default;labelBackgroundColor=none;labelBorderColor=none;spacingTop=0;" edge="1" parent="1" source="l8VWmBXfpPARfImJsObf-54" target="l8VWmBXfpPARfImJsObf-56">
          <mxGeometry relative="1" as="geometry" />
        </mxCell>
        <mxCell id="l8VWmBXfpPARfImJsObf-54" value="Controls" style="whiteSpace=wrap;html=1;rounded=1;fontStyle=1;align=center;verticalAlign=middle;fontColor=default;labelBackgroundColor=none;labelBorderColor=none;spacingTop=0;" vertex="1" parent="1">
          <mxGeometry x="487" y="1140" width="120" height="60" as="geometry" />
        </mxCell>
        <mxCell id="l8VWmBXfpPARfImJsObf-56" value="Media Dropdow" style="whiteSpace=wrap;html=1;rounded=1;fontStyle=1;align=center;verticalAlign=middle;fontColor=default;labelBackgroundColor=none;labelBorderColor=none;spacingTop=0;" vertex="1" parent="1">
          <mxGeometry x="487" y="1230" width="120" height="60" as="geometry" />
        </mxCell>
        <mxCell id="l8VWmBXfpPARfImJsObf-61" value="" style="edgeStyle=orthogonalEdgeStyle;rounded=0;orthogonalLoop=1;jettySize=auto;html=1;fontStyle=1;align=center;verticalAlign=middle;fontColor=default;labelBackgroundColor=none;labelBorderColor=none;spacingTop=0;" edge="1" parent="1" source="l8VWmBXfpPARfImJsObf-58" target="l8VWmBXfpPARfImJsObf-60">
          <mxGeometry relative="1" as="geometry" />
        </mxCell>
        <mxCell id="l8VWmBXfpPARfImJsObf-58" value="Message List" style="whiteSpace=wrap;html=1;rounded=1;fontStyle=1;align=center;verticalAlign=middle;fontColor=default;labelBackgroundColor=none;labelBorderColor=none;spacingTop=0;" vertex="1" parent="1">
          <mxGeometry x="625" y="1140" width="120" height="60" as="geometry" />
        </mxCell>
        <mxCell id="l8VWmBXfpPARfImJsObf-63" value="" style="edgeStyle=orthogonalEdgeStyle;rounded=0;orthogonalLoop=1;jettySize=auto;html=1;fontStyle=1;align=center;verticalAlign=middle;fontColor=default;labelBackgroundColor=none;labelBorderColor=none;spacingTop=0;" edge="1" parent="1" source="l8VWmBXfpPARfImJsObf-60" target="l8VWmBXfpPARfImJsObf-62">
          <mxGeometry relative="1" as="geometry" />
        </mxCell>
        <mxCell id="l8VWmBXfpPARfImJsObf-67" style="edgeStyle=orthogonalEdgeStyle;rounded=0;orthogonalLoop=1;jettySize=auto;html=1;exitX=0;exitY=0.5;exitDx=0;exitDy=0;fontStyle=1;align=center;verticalAlign=middle;fontColor=default;labelBackgroundColor=none;labelBorderColor=none;spacingTop=0;" edge="1" parent="1" source="l8VWmBXfpPARfImJsObf-60" target="l8VWmBXfpPARfImJsObf-68">
          <mxGeometry relative="1" as="geometry">
            <mxPoint x="680" y="1520" as="targetPoint" />
            <Array as="points">
              <mxPoint x="680" y="1250" />
              <mxPoint x="680" y="1300" />
              <mxPoint x="610" y="1300" />
            </Array>
          </mxGeometry>
        </mxCell>
        <mxCell id="l8VWmBXfpPARfImJsObf-60" value="Message" style="whiteSpace=wrap;html=1;rounded=1;fontStyle=1;align=center;verticalAlign=middle;fontColor=default;labelBackgroundColor=none;labelBorderColor=none;spacingTop=0;" vertex="1" parent="1">
          <mxGeometry x="625" y="1220" width="120" height="60" as="geometry" />
        </mxCell>
        <mxCell id="l8VWmBXfpPARfImJsObf-65" value="" style="edgeStyle=orthogonalEdgeStyle;rounded=0;orthogonalLoop=1;jettySize=auto;html=1;fontStyle=1;align=center;verticalAlign=middle;fontColor=default;labelBackgroundColor=none;labelBorderColor=none;spacingTop=0;" edge="1" parent="1" source="l8VWmBXfpPARfImJsObf-62" target="l8VWmBXfpPARfImJsObf-64">
          <mxGeometry relative="1" as="geometry" />
        </mxCell>
        <mxCell id="l8VWmBXfpPARfImJsObf-62" value="Attachment List" style="whiteSpace=wrap;html=1;rounded=1;fontStyle=1;align=center;verticalAlign=middle;fontColor=default;labelBackgroundColor=none;labelBorderColor=none;spacingTop=0;" vertex="1" parent="1">
          <mxGeometry x="690" y="1320" width="120" height="60" as="geometry" />
        </mxCell>
        <mxCell id="l8VWmBXfpPARfImJsObf-64" value="Attachment" style="whiteSpace=wrap;html=1;rounded=1;fontStyle=1;align=center;verticalAlign=middle;fontColor=default;labelBackgroundColor=none;labelBorderColor=none;spacingTop=0;" vertex="1" parent="1">
          <mxGeometry x="690" y="1410" width="120" height="60" as="geometry" />
        </mxCell>
        <mxCell id="l8VWmBXfpPARfImJsObf-68" value="Messages Action" style="rounded=1;whiteSpace=wrap;html=1;fontStyle=1;align=center;verticalAlign=middle;fontColor=default;labelBackgroundColor=none;labelBorderColor=none;spacingTop=0;" vertex="1" parent="1">
          <mxGeometry x="550" y="1320" width="120" height="60" as="geometry" />
        </mxCell>
        <mxCell id="l8VWmBXfpPARfImJsObf-69" value="Contacts" style="text;html=1;strokeColor=none;fillColor=none;align=center;verticalAlign=middle;whiteSpace=wrap;rounded=0;fontStyle=1;fontColor=default;labelBackgroundColor=none;labelBorderColor=none;spacingTop=0;" vertex="1" parent="1">
          <mxGeometry x="240" y="960" width="60" height="30" as="geometry" />
        </mxCell>
        <mxCell id="l8VWmBXfpPARfImJsObf-70" value="Contact ID" style="text;html=1;strokeColor=none;fillColor=none;align=center;verticalAlign=middle;whiteSpace=wrap;rounded=0;fontStyle=1;fontColor=default;labelBackgroundColor=none;labelBorderColor=none;spacingTop=0;" vertex="1" parent="1">
          <mxGeometry x="530" y="970" width="70" height="30" as="geometry" />
        </mxCell>
        <mxCell id="l8VWmBXfpPARfImJsObf-71" value="Messages" style="text;html=1;strokeColor=none;fillColor=none;align=center;verticalAlign=middle;whiteSpace=wrap;rounded=0;fontStyle=1;fontColor=default;labelBackgroundColor=none;labelBorderColor=none;spacingTop=0;" vertex="1" parent="1">
          <mxGeometry x="700" y="1050" width="60" height="30" as="geometry" />
        </mxCell>
        <mxCell id="l8VWmBXfpPARfImJsObf-72" value="Attachments" style="text;html=1;strokeColor=none;fillColor=none;align=center;verticalAlign=middle;whiteSpace=wrap;rounded=0;fontStyle=1;fontColor=default;labelBackgroundColor=none;labelBorderColor=none;spacingTop=0;" vertex="1" parent="1">
          <mxGeometry x="700" y="1280" width="60" height="30" as="geometry" />
        </mxCell>
      </root>
    </mxGraphModel>
  </diagram>
</mxfile>
